{
    "programs": [

    ],
    "streams": [
        {
            "index": 0,
            "codec_name": "mpeg2video",
            "codec_long_name": "MPEG-2 video",
            "profile": "Main",
            "codec_type": "video",
            "codec_time_base": "1001/60000",
            "codec_tag_string": "[0][0][0][0]",
            "codec_tag": "0x0000",
            "width": 1920,
            "height": 1080,
            "has_b_frames": 1,
            "sample_aspect_ratio": "1:1",
            "display_aspect_ratio": "16:9",
            "pix_fmt": "yuv420p",
            "level": 4,
            "color_range": "tv",
            "color_transfer": "bt709",
            "color_primaries": "bt709",
            "chroma_location": "left",
            "timecode": "00:00:00;00",
            "refs": 1,
            "r_frame_rate": "30000/1001",
            "avg_frame_rate": "30000/1001",
            "time_base": "1001/30000",
            "start_pts": 0,
            "start_time": "0.000000",
            "duration_ts": 992,
            "duration": "33.099733",
            "max_bit_rate": "35000000",
            "disposition": {
                "default": 0,
                "dub": 0,
                "original": 0,
                "comment": 0,
                "lyrics": 0,
                "karaoke": 0,
                "forced": 0,
                "hearing_impaired": 0,
                "visual_impaired": 0,
                "clean_effects": 0,
                "attached_pic": 0
            },
            "tags": {
                "file_package_umid": "0x060A2B340101010501010D1213D47D7E0BD3380484710583497800090FFE0001",
                "file_package_name": "Source Package"
            }
        },
        {
            "index": 1,
            "codec_name": "pcm_s16le",
            "codec_long_name": "PCM signed 16-bit little-endian",
            "codec_type": "audio",
            "codec_time_base": "1/48000",
            "codec_tag_string": "[0][0][0][0]",
            "codec_tag": "0x0000",
            "sample_fmt": "s16",
            "sample_rate": "48000",
            "channels": 1,
            "bits_per_sample": 16,
            "r_frame_rate": "0/0",
            "avg_frame_rate": "0/0",
            "time_base": "1/48000",
            "start_pts": 0,
            "start_time": "0.000000",
            "duration_ts": 1588787,
            "duration": "33.099729",
            "bit_rate": "768000",
            "disposition": {
                "default": 0,
                "dub": 0,
                "original": 0,
                "comment": 0,
                "lyrics": 0,
                "karaoke": 0,
                "forced": 0,
                "hearing_impaired": 0,
                "visual_impaired": 0,
                "clean_effects": 0,
                "attached_pic": 0
            },
            "tags": {
                "file_package_umid": "0x060A2B340101010501010D1213D47D7E0BD3380484710583497800090FFE0001",
                "file_package_name": "Source Package"
            }
        },
        {
            "index": 2,
            "codec_name": "pcm_s16le",
            "codec_long_name": "PCM signed 16-bit little-endian",
            "codec_type": "audio",
            "codec_time_base": "1/48000",
            "codec_tag_string": "[0][0][0][0]",
            "codec_tag": "0x0000",
            "sample_fmt": "s16",
            "sample_rate": "48000",
            "channels": 1,
            "bits_per_sample": 16,
            "r_frame_rate": "0/0",
            "avg_frame_rate": "0/0",
            "time_base": "1/48000",
            "start_pts": 0,
            "start_time": "0.000000",
            "duration_ts": 1588787,
            "duration": "33.099729",
            "bit_rate": "768000",
            "disposition": {
                "default": 0,
                "dub": 0,
                "original": 0,
                "comment": 0,
                "lyrics": 0,
                "karaoke": 0,
                "forced": 0,
                "hearing_impaired": 0,
                "visual_impaired": 0,
                "clean_effects": 0,
                "attached_pic": 0
            },
            "tags": {
                "file_package_umid": "0x060A2B340101010501010D1213D47D7E0BD3380484710583497800090FFE0001",
                "file_package_name": "Source Package"
            }
        }
    ],
    "format": {
        "filename": "PANORAMA 20 VOD.mxf",
        "nb_streams": 3,
        "nb_programs": 0,
        "format_name": "mxf",
        "format_long_name": "MXF (Material eXchange Format)",
        "start_time": "0.000000",
        "duration": "33.099733",
        "size": "115766880",
        "bit_rate": "27980136",
        "probe_score": 100,
        "tags": {
            "uid": "b913ce8a-1071-11e5-8c98-00090ffe0001",
            "generation_uid": "b913ce8b-1071-11e5-9383-00090ffe0001",
            "company_name": "Adobe Systems Incorporated",
            "product_name": "Adobe Media Encoder",
            "product_version": "8.2.0",
            "application_platform": "win32",
            "product_uid": "10ab07a9-e89e-7510-a923-ea9220524153",
            "modification_date": "2015-06-11 19:40:32",
            "material_package_umid": "0x060A2B340101010501010D11130000000DD3380484710583050500090FFE0001",
            "timecode": "00:00:00;00"
        }
    }
}
